<svg width="187" height="137" viewBox="0 0 187 137" fill="none" xmlns="http://www.w3.org/2000/svg">
<g opacity="0.8" clip-path="url(#clip0_2234_8808)">
<path d="M5.3356 39.2957C5.3356 40.8151 4.19226 41.9546 2.6678 41.9546C1.14334 41.9546 0 40.8151 0 39.2957C0 37.7763 1.14334 36.6367 2.6678 36.6367C4.19226 36.6367 5.3356 37.9029 5.3356 39.2957Z" fill="white"/>
<path d="M28.0753 39.2957C28.0753 40.8151 26.932 41.9546 25.4075 41.9546C23.8831 41.9546 22.7397 40.8151 22.7397 39.2957C22.7397 37.7763 23.8831 36.6367 25.4075 36.6367C26.805 36.6367 28.0753 37.9029 28.0753 39.2957Z" fill="white"/>
<path d="M50.6881 39.2957C50.6881 40.8151 49.5448 41.9546 48.0203 41.9546C46.4959 41.9546 45.3525 40.8151 45.3525 39.2957C45.3525 37.7763 46.4959 36.6367 48.0203 36.6367C49.5448 36.6367 50.6881 37.9029 50.6881 39.2957Z" fill="white"/>
<path d="M73.4279 39.2957C73.4279 40.8151 72.2845 41.9546 70.7601 41.9546C69.2356 41.9546 68.0923 40.8151 68.0923 39.2957C68.0923 37.7763 69.2356 36.6367 70.7601 36.6367C72.2845 36.6367 73.4279 37.9029 73.4279 39.2957Z" fill="white"/>
<path d="M96.1676 39.2957C96.1676 40.8151 95.0243 41.9546 93.4998 41.9546C91.9754 41.9546 90.832 40.8151 90.832 39.2957C90.832 37.7763 91.9754 36.6367 93.4998 36.6367C94.8972 36.6367 96.1676 37.9029 96.1676 39.2957Z" fill="white"/>
<path d="M118.908 39.2957C118.908 40.8151 117.765 41.9546 116.24 41.9546C114.716 41.9546 113.572 40.8151 113.572 39.2957C113.572 37.7763 114.716 36.6367 116.24 36.6367C117.765 36.6367 118.908 37.9029 118.908 39.2957Z" fill="white"/>
<path d="M141.52 39.2957C141.52 40.8151 140.377 41.9546 138.852 41.9546C137.328 41.9546 136.185 40.8151 136.185 39.2957C136.185 37.7763 137.328 36.6367 138.852 36.6367C140.377 36.6367 141.52 37.9029 141.52 39.2957Z" fill="white"/>
<path d="M164.26 39.2957C164.26 40.8151 163.117 41.9546 161.592 41.9546C160.068 41.9546 158.924 40.8151 158.924 39.2957C158.924 37.7763 160.068 36.6367 161.592 36.6367C163.117 36.6367 164.26 37.9029 164.26 39.2957Z" fill="white"/>
<path d="M187 39.2957C187 40.8151 185.857 41.9546 184.332 41.9546C182.808 41.9546 181.665 40.8151 181.665 39.2957C181.665 37.7763 182.808 36.6367 184.332 36.6367C185.73 36.6367 187 37.9029 187 39.2957Z" fill="white"/>
<path d="M5.3356 57.614C5.3356 59.1335 4.19226 60.273 2.6678 60.273C1.14334 60.273 0 59.1335 0 57.614C0 56.0946 1.14334 54.9551 2.6678 54.9551C4.19226 54.9551 5.3356 56.0946 5.3356 57.614Z" fill="white"/>
<path d="M28.0753 57.614C28.0753 59.1335 26.932 60.273 25.4075 60.273C23.8831 60.273 22.7397 59.1335 22.7397 57.614C22.7397 56.0946 23.8831 54.9551 25.4075 54.9551C26.805 54.9551 28.0753 56.0946 28.0753 57.614Z" fill="white"/>
<path d="M50.6881 57.614C50.6881 59.1335 49.5448 60.273 48.0203 60.273C46.4959 60.273 45.3525 59.1335 45.3525 57.614C45.3525 56.0946 46.4959 54.9551 48.0203 54.9551C49.5448 54.9551 50.6881 56.0946 50.6881 57.614Z" fill="white"/>
<path d="M73.4279 57.614C73.4279 59.1335 72.2845 60.273 70.7601 60.273C69.2356 60.273 68.0923 59.1335 68.0923 57.614C68.0923 56.0946 69.2356 54.9551 70.7601 54.9551C72.2845 54.9551 73.4279 56.0946 73.4279 57.614Z" fill="white"/>
<path d="M96.1676 57.614C96.1676 59.1335 95.0243 60.273 93.4998 60.273C91.9754 60.273 90.832 59.1335 90.832 57.614C90.832 56.0946 91.9754 54.9551 93.4998 54.9551C94.8972 54.9551 96.1676 56.0946 96.1676 57.614Z" fill="white"/>
<path d="M118.908 57.614C118.908 59.1335 117.765 60.273 116.24 60.273C114.716 60.273 113.572 59.1335 113.572 57.614C113.572 56.0946 114.716 54.9551 116.24 54.9551C117.765 54.9551 118.908 56.0946 118.908 57.614Z" fill="white"/>
<path d="M141.52 57.614C141.52 59.1335 140.377 60.273 138.852 60.273C137.328 60.273 136.185 59.1335 136.185 57.614C136.185 56.0946 137.328 54.9551 138.852 54.9551C140.377 54.9551 141.52 56.0946 141.52 57.614Z" fill="white"/>
<path d="M164.26 57.614C164.26 59.1335 163.117 60.273 161.592 60.273C160.068 60.273 158.924 59.1335 158.924 57.614C158.924 56.0946 160.068 54.9551 161.592 54.9551C163.117 54.9551 164.26 56.0946 164.26 57.614Z" fill="white"/>
<path d="M187 57.614C187 59.1335 185.857 60.273 184.332 60.273C182.808 60.273 181.665 59.1335 181.665 57.614C181.665 56.0946 182.808 54.9551 184.332 54.9551C185.73 54.9551 187 56.0946 187 57.614Z" fill="white"/>
<path d="M5.3356 2.65896C5.3356 4.17837 4.19226 5.31793 2.6678 5.31793C1.14334 5.31793 0 4.17837 0 2.65896C0 1.13956 1.14334 0 2.6678 0C4.19226 0 5.3356 1.13956 5.3356 2.65896Z" fill="white"/>
<path d="M28.0753 2.65896C28.0753 4.17837 26.932 5.31793 25.4075 5.31793C23.8831 5.31793 22.7397 4.17837 22.7397 2.65896C22.7397 1.13956 23.8831 0 25.4075 0C26.805 0 28.0753 1.13956 28.0753 2.65896Z" fill="white"/>
<path d="M50.6881 2.65896C50.6881 4.17837 49.5448 5.31793 48.0203 5.31793C46.4959 5.31793 45.3525 4.17837 45.3525 2.65896C45.3525 1.13956 46.6229 0 48.0203 0C49.5448 0 50.6881 1.13956 50.6881 2.65896Z" fill="white"/>
<path d="M73.4279 2.65896C73.4279 4.17837 72.2845 5.31793 70.7601 5.31793C69.2356 5.31793 68.0923 4.17837 68.0923 2.65896C68.0923 1.13956 69.3627 0 70.7601 0C72.1575 0 73.4279 1.13956 73.4279 2.65896Z" fill="white"/>
<path d="M96.1676 2.65896C96.1676 4.17837 95.0243 5.31793 93.4998 5.31793C91.9754 5.31793 90.832 4.17837 90.832 2.65896C90.832 1.13956 91.9754 0 93.4998 0C94.8972 0 96.1676 1.13956 96.1676 2.65896Z" fill="white"/>
<path d="M118.908 2.65896C118.908 4.17837 117.765 5.31793 116.24 5.31793C114.716 5.31793 113.572 4.17837 113.572 2.65896C113.572 1.13956 114.716 0 116.24 0C117.765 0 118.908 1.13956 118.908 2.65896Z" fill="white"/>
<path d="M141.52 2.65896C141.52 4.17837 140.377 5.31793 138.852 5.31793C137.328 5.31793 136.185 4.17837 136.185 2.65896C136.185 1.13956 137.328 0 138.852 0C140.377 0 141.52 1.13956 141.52 2.65896Z" fill="white"/>
<path d="M164.26 2.65896C164.26 4.17837 163.117 5.31793 161.592 5.31793C160.068 5.31793 158.924 4.17837 158.924 2.65896C158.924 1.13956 160.068 0 161.592 0C163.117 0 164.26 1.13956 164.26 2.65896Z" fill="white"/>
<path d="M187 2.65896C187 4.17837 185.857 5.31793 184.332 5.31793C182.808 5.31793 181.665 4.17837 181.665 2.65896C181.665 1.13956 182.808 0 184.332 0C185.73 0 187 1.13956 187 2.65896Z" fill="white"/>
<path d="M5.3356 20.9773C5.3356 22.4967 4.19226 23.6363 2.6678 23.6363C1.14334 23.6363 0 22.3701 0 20.9773C0 19.4579 1.14334 18.3184 2.6678 18.3184C4.19226 18.3184 5.3356 19.4579 5.3356 20.9773Z" fill="white"/>
<path d="M28.0753 20.9773C28.0753 22.4967 26.932 23.6363 25.4075 23.6363C23.8831 23.6363 22.7397 22.4967 22.7397 20.9773C22.7397 19.4579 23.8831 18.3184 25.4075 18.3184C26.805 18.3184 28.0753 19.4579 28.0753 20.9773Z" fill="white"/>
<path d="M50.6881 20.9773C50.6881 22.4967 49.5448 23.6363 48.0203 23.6363C46.4959 23.6363 45.3525 22.4967 45.3525 20.9773C45.3525 19.4579 46.4959 18.3184 48.0203 18.3184C49.5448 18.3184 50.6881 19.4579 50.6881 20.9773Z" fill="white"/>
<path d="M73.4279 20.9773C73.4279 22.4967 72.2845 23.6363 70.7601 23.6363C69.2356 23.6363 68.0923 22.4967 68.0923 20.9773C68.0923 19.4579 69.2356 18.3184 70.7601 18.3184C72.2845 18.3184 73.4279 19.4579 73.4279 20.9773Z" fill="white"/>
<path d="M96.1676 20.9773C96.1676 22.4967 95.0243 23.6363 93.4998 23.6363C91.9754 23.6363 90.832 22.4967 90.832 20.9773C90.832 19.4579 91.9754 18.3184 93.4998 18.3184C94.8972 18.3184 96.1676 19.4579 96.1676 20.9773Z" fill="white"/>
<path d="M118.908 20.9773C118.908 22.4967 117.765 23.6363 116.24 23.6363C114.716 23.6363 113.572 22.4967 113.572 20.9773C113.572 19.4579 114.716 18.3184 116.24 18.3184C117.765 18.3184 118.908 19.4579 118.908 20.9773Z" fill="white"/>
<path d="M141.52 20.9773C141.52 22.4967 140.377 23.6363 138.852 23.6363C137.328 23.6363 136.185 22.4967 136.185 20.9773C136.185 19.4579 137.328 18.3184 138.852 18.3184C140.377 18.3184 141.52 19.4579 141.52 20.9773Z" fill="white"/>
<path d="M164.26 20.9773C164.26 22.4967 163.117 23.6363 161.592 23.6363C160.068 23.6363 158.924 22.4967 158.924 20.9773C158.924 19.4579 160.068 18.3184 161.592 18.3184C163.117 18.3184 164.26 19.4579 164.26 20.9773Z" fill="white"/>
<path d="M187 20.9773C187 22.4967 185.857 23.6363 184.332 23.6363C182.808 23.6363 181.665 22.4967 181.665 20.9773C181.665 19.4579 182.808 18.3184 184.332 18.3184C185.73 18.3184 187 19.4579 187 20.9773Z" fill="white"/>
<path d="M5.3356 75.9324C5.3356 77.4518 4.19226 78.5914 2.6678 78.5914C1.14334 78.5914 0 77.4518 0 75.9324C0 74.413 1.14334 73.2734 2.6678 73.2734C4.19226 73.2734 5.3356 74.5396 5.3356 75.9324Z" fill="white"/>
<path d="M28.0753 75.9324C28.0753 77.4518 26.932 78.5914 25.4075 78.5914C23.8831 78.5914 22.7397 77.4518 22.7397 75.9324C22.7397 74.413 23.8831 73.2734 25.4075 73.2734C26.805 73.2734 28.0753 74.5396 28.0753 75.9324Z" fill="white"/>
<path d="M50.6881 75.9324C50.6881 77.4518 49.5448 78.5914 48.0203 78.5914C46.4959 78.5914 45.3525 77.4518 45.3525 75.9324C45.3525 74.413 46.4959 73.2734 48.0203 73.2734C49.5448 73.2734 50.6881 74.5396 50.6881 75.9324Z" fill="white"/>
<path d="M73.4279 75.9324C73.4279 77.4518 72.2845 78.5914 70.7601 78.5914C69.2356 78.5914 68.0923 77.4518 68.0923 75.9324C68.0923 74.413 69.2356 73.2734 70.7601 73.2734C72.2845 73.2734 73.4279 74.5396 73.4279 75.9324Z" fill="white"/>
<path d="M96.1676 75.9324C96.1676 77.4518 95.0243 78.5914 93.4998 78.5914C91.9754 78.5914 90.832 77.4518 90.832 75.9324C90.832 74.413 91.9754 73.2734 93.4998 73.2734C94.8972 73.2734 96.1676 74.5396 96.1676 75.9324Z" fill="white"/>
<path d="M118.908 75.9324C118.908 77.4518 117.765 78.5914 116.24 78.5914C114.716 78.5914 113.572 77.4518 113.572 75.9324C113.572 74.413 114.716 73.2734 116.24 73.2734C117.765 73.2734 118.908 74.5396 118.908 75.9324Z" fill="white"/>
<path d="M141.52 75.9324C141.52 77.4518 140.377 78.5914 138.852 78.5914C137.328 78.5914 136.185 77.4518 136.185 75.9324C136.185 74.413 137.328 73.2734 138.852 73.2734C140.377 73.2734 141.52 74.5396 141.52 75.9324Z" fill="white"/>
<path d="M164.26 75.9324C164.26 77.4518 163.117 78.5914 161.592 78.5914C160.068 78.5914 158.924 77.4518 158.924 75.9324C158.924 74.413 160.068 73.2734 161.592 73.2734C163.117 73.2734 164.26 74.5396 164.26 75.9324Z" fill="white"/>
<path d="M187 75.9324C187 77.4518 185.857 78.5914 184.332 78.5914C182.808 78.5914 181.665 77.4518 181.665 75.9324C181.665 74.413 182.808 73.2734 184.332 73.2734C185.73 73.2734 187 74.5396 187 75.9324Z" fill="white"/>
<path d="M5.3356 94.2508C5.3356 95.7702 4.19226 96.9097 2.6678 96.9097C1.14334 96.9097 0 95.7702 0 94.2508C0 92.7313 1.14334 91.5918 2.6678 91.5918C4.19226 91.5918 5.3356 92.7313 5.3356 94.2508Z" fill="white"/>
<path d="M28.0753 94.2508C28.0753 95.7702 26.932 96.9097 25.4075 96.9097C23.8831 96.9097 22.7397 95.7702 22.7397 94.2508C22.7397 92.7313 23.8831 91.5918 25.4075 91.5918C26.805 91.5918 28.0753 92.7313 28.0753 94.2508Z" fill="white"/>
<path d="M50.6881 94.2508C50.6881 95.7702 49.5448 96.9097 48.0203 96.9097C46.4959 96.9097 45.3525 95.7702 45.3525 94.2508C45.3525 92.7313 46.4959 91.5918 48.0203 91.5918C49.5448 91.5918 50.6881 92.7313 50.6881 94.2508Z" fill="white"/>
<path d="M70.7601 96.9097C72.2335 96.9097 73.4279 95.7193 73.4279 94.2508C73.4279 92.7823 72.2335 91.5918 70.7601 91.5918C69.2867 91.5918 68.0923 92.7823 68.0923 94.2508C68.0923 95.7193 69.2867 96.9097 70.7601 96.9097Z" fill="white"/>
<path d="M96.1676 94.2508C96.1676 95.7702 95.0243 96.9097 93.4998 96.9097C91.9754 96.9097 90.832 95.7702 90.832 94.2508C90.832 92.7313 91.9754 91.5918 93.4998 91.5918C94.8972 91.5918 96.1676 92.7313 96.1676 94.2508Z" fill="white"/>
<path d="M118.908 94.2508C118.908 95.7702 117.765 96.9097 116.24 96.9097C114.716 96.9097 113.572 95.7702 113.572 94.2508C113.572 92.7313 114.716 91.5918 116.24 91.5918C117.765 91.5918 118.908 92.7313 118.908 94.2508Z" fill="white"/>
<path d="M141.52 94.2508C141.52 95.7702 140.377 96.9097 138.852 96.9097C137.328 96.9097 136.185 95.7702 136.185 94.2508C136.185 92.7313 137.328 91.5918 138.852 91.5918C140.377 91.5918 141.52 92.7313 141.52 94.2508Z" fill="white"/>
<path d="M161.592 96.9097C163.065 96.9097 164.26 95.7193 164.26 94.2508C164.26 92.7823 163.065 91.5918 161.592 91.5918C160.119 91.5918 158.924 92.7823 158.924 94.2508C158.924 95.7193 160.119 96.9097 161.592 96.9097Z" fill="white"/>
<path d="M187 94.2508C187 95.7702 185.857 96.9097 184.332 96.9097C182.808 96.9097 181.665 95.7702 181.665 94.2508C181.665 92.7313 182.808 91.5918 184.332 91.5918C185.73 91.5918 187 92.7313 187 94.2508Z" fill="white"/>
<path d="M5.3356 112.569C5.3356 114.089 4.19226 115.228 2.6678 115.228C1.14334 115.228 0 114.089 0 112.569C0 111.05 1.14334 109.91 2.6678 109.91C4.19226 109.91 5.3356 111.05 5.3356 112.569Z" fill="white"/>
<path d="M28.0753 112.569C28.0753 114.089 26.932 115.228 25.4075 115.228C23.8831 115.228 22.7397 114.089 22.7397 112.569C22.7397 111.05 23.8831 109.91 25.4075 109.91C26.805 109.91 28.0753 111.05 28.0753 112.569Z" fill="white"/>
<path d="M50.6881 112.569C50.6881 114.089 49.5448 115.228 48.0203 115.228C46.4959 115.228 45.3525 114.089 45.3525 112.569C45.3525 111.05 46.4959 109.91 48.0203 109.91C49.5448 109.91 50.6881 111.05 50.6881 112.569Z" fill="white"/>
<path d="M73.4279 112.569C73.4279 114.089 72.2845 115.228 70.7601 115.228C69.2356 115.228 68.0923 114.089 68.0923 112.569C68.0923 111.05 69.2356 109.91 70.7601 109.91C72.2845 109.91 73.4279 111.05 73.4279 112.569Z" fill="white"/>
<path d="M96.1676 112.569C96.1676 114.089 95.0243 115.228 93.4998 115.228C91.9754 115.228 90.832 114.089 90.832 112.569C90.832 111.05 91.9754 109.91 93.4998 109.91C94.8972 109.91 96.1676 111.05 96.1676 112.569Z" fill="white"/>
<path d="M118.908 112.569C118.908 114.089 117.765 115.228 116.24 115.228C114.716 115.228 113.572 114.089 113.572 112.569C113.572 111.05 114.716 109.91 116.24 109.91C117.765 109.91 118.908 111.05 118.908 112.569Z" fill="white"/>
<path d="M141.52 112.569C141.52 114.089 140.377 115.228 138.852 115.228C137.328 115.228 136.185 114.089 136.185 112.569C136.185 111.05 137.328 109.91 138.852 109.91C140.377 109.91 141.52 111.05 141.52 112.569Z" fill="white"/>
<path d="M164.26 112.569C164.26 114.089 163.117 115.228 161.592 115.228C160.068 115.228 158.924 114.089 158.924 112.569C158.924 111.05 160.068 109.91 161.592 109.91C163.117 109.91 164.26 111.05 164.26 112.569Z" fill="white"/>
<path d="M187 112.569C187 114.089 185.857 115.228 184.332 115.228C182.808 115.228 181.665 114.089 181.665 112.569C181.665 111.05 182.808 109.91 184.332 109.91C185.73 109.91 187 111.05 187 112.569Z" fill="white"/>
<path d="M5.3356 130.887C5.3356 132.407 4.19226 133.546 2.6678 133.546C1.14334 133.546 0 132.407 0 130.887C0 129.368 1.14334 128.229 2.6678 128.229C4.19226 128.229 5.3356 129.495 5.3356 130.887Z" fill="white"/>
<path d="M28.0753 130.887C28.0753 132.407 26.932 133.546 25.4075 133.546C23.8831 133.546 22.7397 132.407 22.7397 130.887C22.7397 129.368 23.8831 128.229 25.4075 128.229C26.805 128.229 28.0753 129.495 28.0753 130.887Z" fill="white"/>
<path d="M50.6881 130.887C50.6881 132.407 49.5448 133.546 48.0203 133.546C46.4959 133.546 45.3525 132.407 45.3525 130.887C45.3525 129.368 46.4959 128.229 48.0203 128.229C49.5448 128.229 50.6881 129.495 50.6881 130.887Z" fill="white"/>
<path d="M73.4279 130.887C73.4279 132.407 72.2845 133.546 70.7601 133.546C69.2356 133.546 68.0923 132.407 68.0923 130.887C68.0923 129.368 69.2356 128.229 70.7601 128.229C72.2845 128.229 73.4279 129.495 73.4279 130.887Z" fill="white"/>
<path d="M96.1676 130.887C96.1676 132.407 95.0243 133.546 93.4998 133.546C91.9754 133.546 90.832 132.407 90.832 130.887C90.832 129.368 91.9754 128.229 93.4998 128.229C94.8972 128.229 96.1676 129.495 96.1676 130.887Z" fill="white"/>
<path d="M118.908 130.887C118.908 132.407 117.765 133.546 116.24 133.546C114.716 133.546 113.572 132.407 113.572 130.887C113.572 129.368 114.716 128.229 116.24 128.229C117.765 128.229 118.908 129.495 118.908 130.887Z" fill="white"/>
<path d="M141.52 130.887C141.52 132.407 140.377 133.546 138.852 133.546C137.328 133.546 136.185 132.407 136.185 130.887C136.185 129.368 137.328 128.229 138.852 128.229C140.377 128.229 141.52 129.495 141.52 130.887Z" fill="white"/>
<path d="M164.26 130.887C164.26 132.407 163.117 133.546 161.592 133.546C160.068 133.546 158.924 132.407 158.924 130.887C158.924 129.368 160.068 128.229 161.592 128.229C163.117 128.229 164.26 129.495 164.26 130.887Z" fill="white"/>
<path d="M187 130.887C187 132.407 185.857 133.546 184.332 133.546C182.808 133.546 181.665 132.407 181.665 130.887C181.665 129.368 182.808 128.229 184.332 128.229C185.73 128.229 187 129.495 187 130.887Z" fill="white"/>
</g>
<defs>
<clipPath id="clip0_2234_8808">
<rect width="187" height="137" fill="white"/>
</clipPath>
</defs>
</svg>
