<svg width="182" height="134" viewBox="0 0 182 134" fill="none" xmlns="http://www.w3.org/2000/svg">
<path d="M5.40402 39.9141C5.40402 41.3863 4.29624 42.4904 2.8192 42.4904C1.34215 42.4904 0.234375 41.3863 0.234375 39.9141C0.234375 38.442 1.34215 37.3379 2.8192 37.3379C4.29624 37.3379 5.40402 38.5647 5.40402 39.9141Z" fill="#FFCF2D"/>
<path d="M27.4367 39.9141C27.4367 41.3863 26.3289 42.4904 24.8519 42.4904C23.3749 42.4904 22.2671 41.3863 22.2671 39.9141C22.2671 38.442 23.3749 37.3379 24.8519 37.3379C26.2059 37.3379 27.4367 38.5647 27.4367 39.9141Z" fill="#FFCF2D"/>
<path d="M49.3459 39.9141C49.3459 41.3863 48.2381 42.4904 46.7611 42.4904C45.284 42.4904 44.1763 41.3863 44.1763 39.9141C44.1763 38.442 45.284 37.3379 46.7611 37.3379C48.2381 37.3379 49.3459 38.5647 49.3459 39.9141Z" fill="#FFCF2D"/>
<path d="M71.3781 39.9141C71.3781 41.3863 70.2704 42.4904 68.7933 42.4904C67.3163 42.4904 66.2085 41.3863 66.2085 39.9141C66.2085 38.442 67.3163 37.3379 68.7933 37.3379C70.2704 37.3379 71.3781 38.5647 71.3781 39.9141Z" fill="#FFCF2D"/>
<path d="M93.4109 39.9141C93.4109 41.3863 92.3031 42.4904 90.826 42.4904C89.349 42.4904 88.2412 41.3863 88.2412 39.9141C88.2412 38.442 89.349 37.3379 90.826 37.3379C92.18 37.3379 93.4109 38.5647 93.4109 39.9141Z" fill="#FFCF2D"/>
<path d="M115.444 39.9141C115.444 41.3863 114.336 42.4904 112.859 42.4904C111.382 42.4904 110.274 41.3863 110.274 39.9141C110.274 38.442 111.382 37.3379 112.859 37.3379C114.336 37.3379 115.444 38.5647 115.444 39.9141Z" fill="#FFCF2D"/>
<path d="M137.353 39.9141C137.353 41.3863 136.245 42.4904 134.768 42.4904C133.291 42.4904 132.183 41.3863 132.183 39.9141C132.183 38.442 133.291 37.3379 134.768 37.3379C136.245 37.3379 137.353 38.5647 137.353 39.9141Z" fill="#FFCF2D"/>
<path d="M159.385 39.9141C159.385 41.3863 158.278 42.4904 156.801 42.4904C155.324 42.4904 154.216 41.3863 154.216 39.9141C154.216 38.442 155.324 37.3379 156.801 37.3379C158.278 37.3379 159.385 38.5647 159.385 39.9141Z" fill="#FFCF2D"/>
<path d="M181.418 39.9141C181.418 41.3863 180.31 42.4904 178.833 42.4904C177.356 42.4904 176.249 41.3863 176.249 39.9141C176.249 38.442 177.356 37.3379 178.833 37.3379C180.187 37.3379 181.418 38.5647 181.418 39.9141Z" fill="#FFCF2D"/>
<path d="M5.40401 58.1935C5.40401 59.6656 4.29624 60.7697 2.81919 60.7697C1.34215 60.7697 0.234375 59.6656 0.234375 58.1935C0.234375 56.7213 1.34215 55.6172 2.81919 55.6172C4.29624 55.6172 5.40401 56.7213 5.40401 58.1935Z" fill="#FFCF2D"/>
<path d="M27.4367 58.1935C27.4367 59.6656 26.329 60.7697 24.8519 60.7697C23.3749 60.7697 22.2671 59.6656 22.2671 58.1935C22.2671 56.7213 23.3749 55.6172 24.8519 55.6172C26.2059 55.6172 27.4367 56.7213 27.4367 58.1935Z" fill="#FFCF2D"/>
<path d="M49.3459 58.1935C49.3459 59.6656 48.2381 60.7697 46.7611 60.7697C45.284 60.7697 44.1763 59.6656 44.1763 58.1935C44.1763 56.7213 45.284 55.6172 46.7611 55.6172C48.2381 55.6172 49.3459 56.7213 49.3459 58.1935Z" fill="#FFCF2D"/>
<path d="M71.3781 58.1935C71.3781 59.6656 70.2704 60.7697 68.7933 60.7697C67.3163 60.7697 66.2085 59.6656 66.2085 58.1935C66.2085 56.7213 67.3163 55.6172 68.7933 55.6172C70.2704 55.6172 71.3781 56.7213 71.3781 58.1935Z" fill="#FFCF2D"/>
<path d="M93.4109 58.1935C93.4109 59.6656 92.3031 60.7697 90.826 60.7697C89.349 60.7697 88.2412 59.6656 88.2412 58.1935C88.2412 56.7213 89.349 55.6172 90.826 55.6172C92.18 55.6172 93.4109 56.7213 93.4109 58.1935Z" fill="#FFCF2D"/>
<path d="M115.444 58.1935C115.444 59.6656 114.336 60.7697 112.859 60.7697C111.382 60.7697 110.274 59.6656 110.274 58.1935C110.274 56.7213 111.382 55.6172 112.859 55.6172C114.336 55.6172 115.444 56.7213 115.444 58.1935Z" fill="#FFCF2D"/>
<path d="M137.353 58.1935C137.353 59.6656 136.245 60.7697 134.768 60.7697C133.291 60.7697 132.183 59.6656 132.183 58.1935C132.183 56.7213 133.291 55.6172 134.768 55.6172C136.245 55.6172 137.353 56.7213 137.353 58.1935Z" fill="#FFCF2D"/>
<path d="M159.385 58.1935C159.385 59.6656 158.278 60.7697 156.801 60.7697C155.324 60.7697 154.216 59.6656 154.216 58.1935C154.216 56.7213 155.324 55.6172 156.801 55.6172C158.278 55.6172 159.385 56.7213 159.385 58.1935Z" fill="#FFCF2D"/>
<path d="M181.418 58.1935C181.418 59.6656 180.31 60.7697 178.833 60.7697C177.356 60.7697 176.249 59.6656 176.249 58.1935C176.249 56.7213 177.356 55.6172 178.833 55.6172C180.187 55.6172 181.418 56.7213 181.418 58.1935Z" fill="#FFCF2D"/>
<path d="M5.40402 3.4786C5.40402 4.95075 4.29624 6.05486 2.8192 6.05486C1.34215 6.05486 0.234375 4.95075 0.234375 3.4786C0.234375 2.00646 1.34215 0.902344 2.8192 0.902344C4.29624 0.902344 5.40402 2.00646 5.40402 3.4786Z" fill="#FFCF2D"/>
<path d="M27.4367 3.4786C27.4367 4.95075 26.329 6.05486 24.8519 6.05486C23.3749 6.05486 22.2671 4.95075 22.2671 3.4786C22.2671 2.00646 23.3749 0.902344 24.8519 0.902344C26.2059 0.902344 27.4367 2.00646 27.4367 3.4786Z" fill="#FFCF2D"/>
<path d="M49.3459 3.4786C49.3459 4.95075 48.2381 6.05486 46.7611 6.05486C45.284 6.05486 44.1763 4.95075 44.1763 3.4786C44.1763 2.00646 45.4071 0.902344 46.7611 0.902344C48.2381 0.902344 49.3459 2.00646 49.3459 3.4786Z" fill="#FFCF2D"/>
<path d="M71.3781 3.4786C71.3781 4.95075 70.2704 6.05486 68.7933 6.05486C67.3163 6.05486 66.2085 4.95075 66.2085 3.4786C66.2085 2.00646 67.4394 0.902344 68.7933 0.902344C70.1473 0.902344 71.3781 2.00646 71.3781 3.4786Z" fill="#FFCF2D"/>
<path d="M93.4109 3.4786C93.4109 4.95075 92.3031 6.05486 90.826 6.05486C89.349 6.05486 88.2412 4.95075 88.2412 3.4786C88.2412 2.00646 89.349 0.902344 90.826 0.902344C92.18 0.902344 93.4109 2.00646 93.4109 3.4786Z" fill="#FFCF2D"/>
<path d="M115.444 3.4786C115.444 4.95075 114.336 6.05486 112.859 6.05486C111.382 6.05486 110.274 4.95075 110.274 3.4786C110.274 2.00646 111.382 0.902344 112.859 0.902344C114.336 0.902344 115.444 2.00646 115.444 3.4786Z" fill="#FFCF2D"/>
<path d="M137.353 3.4786C137.353 4.95075 136.245 6.05486 134.768 6.05486C133.291 6.05486 132.183 4.95075 132.183 3.4786C132.183 2.00646 133.291 0.902344 134.768 0.902344C136.245 0.902344 137.353 2.00646 137.353 3.4786Z" fill="#FFCF2D"/>
<path d="M159.385 3.4786C159.385 4.95075 158.278 6.05486 156.801 6.05486C155.324 6.05486 154.216 4.95075 154.216 3.4786C154.216 2.00646 155.324 0.902344 156.801 0.902344C158.278 0.902344 159.385 2.00646 159.385 3.4786Z" fill="#FFCF2D"/>
<path d="M181.418 3.4786C181.418 4.95075 180.31 6.05486 178.833 6.05486C177.356 6.05486 176.249 4.95075 176.249 3.4786C176.249 2.00646 177.356 0.902344 178.833 0.902344C180.187 0.902344 181.418 2.00646 181.418 3.4786Z" fill="#FFCF2D"/>
<path d="M5.40402 21.7579C5.40402 23.2301 4.29624 24.3342 2.8192 24.3342C1.34215 24.3342 0.234375 23.1074 0.234375 21.7579C0.234375 20.2858 1.34215 19.1816 2.8192 19.1816C4.29624 19.1816 5.40402 20.2858 5.40402 21.7579Z" fill="#FFCF2D"/>
<path d="M27.4367 21.7579C27.4367 23.2301 26.3289 24.3342 24.8519 24.3342C23.3749 24.3342 22.2671 23.2301 22.2671 21.7579C22.2671 20.2858 23.3749 19.1816 24.8519 19.1816C26.2059 19.1816 27.4367 20.2858 27.4367 21.7579Z" fill="#FFCF2D"/>
<path d="M49.3459 21.7579C49.3459 23.2301 48.2381 24.3342 46.7611 24.3342C45.284 24.3342 44.1763 23.2301 44.1763 21.7579C44.1763 20.2858 45.284 19.1816 46.7611 19.1816C48.2381 19.1816 49.3459 20.2858 49.3459 21.7579Z" fill="#FFCF2D"/>
<path d="M71.3781 21.7579C71.3781 23.2301 70.2704 24.3342 68.7933 24.3342C67.3163 24.3342 66.2085 23.2301 66.2085 21.7579C66.2085 20.2858 67.3163 19.1816 68.7933 19.1816C70.2704 19.1816 71.3781 20.2858 71.3781 21.7579Z" fill="#FFCF2D"/>
<path d="M93.4109 21.7579C93.4109 23.2301 92.3031 24.3342 90.826 24.3342C89.349 24.3342 88.2412 23.2301 88.2412 21.7579C88.2412 20.2858 89.349 19.1816 90.826 19.1816C92.18 19.1816 93.4109 20.2858 93.4109 21.7579Z" fill="#FFCF2D"/>
<path d="M115.444 21.7579C115.444 23.2301 114.336 24.3342 112.859 24.3342C111.382 24.3342 110.274 23.2301 110.274 21.7579C110.274 20.2858 111.382 19.1816 112.859 19.1816C114.336 19.1816 115.444 20.2858 115.444 21.7579Z" fill="#FFCF2D"/>
<path d="M137.353 21.7579C137.353 23.2301 136.245 24.3342 134.768 24.3342C133.291 24.3342 132.183 23.2301 132.183 21.7579C132.183 20.2858 133.291 19.1816 134.768 19.1816C136.245 19.1816 137.353 20.2858 137.353 21.7579Z" fill="#FFCF2D"/>
<path d="M159.385 21.7579C159.385 23.2301 158.278 24.3342 156.801 24.3342C155.324 24.3342 154.216 23.2301 154.216 21.7579C154.216 20.2858 155.324 19.1816 156.801 19.1816C158.278 19.1816 159.385 20.2858 159.385 21.7579Z" fill="#FFCF2D"/>
<path d="M181.418 21.7579C181.418 23.2301 180.31 24.3342 178.833 24.3342C177.356 24.3342 176.249 23.2301 176.249 21.7579C176.249 20.2858 177.356 19.1816 178.833 19.1816C180.187 19.1816 181.418 20.2858 181.418 21.7579Z" fill="#FFCF2D"/>
<path d="M5.40401 76.3497C5.40401 77.8218 4.29624 78.926 2.81919 78.926C1.34215 78.926 0.234375 77.8218 0.234375 76.3497C0.234375 74.8775 1.34215 73.7734 2.81919 73.7734C4.29624 73.7734 5.40401 75.0002 5.40401 76.3497Z" fill="#FFCF2D"/>
<path d="M27.4367 76.3497C27.4367 77.8218 26.329 78.9259 24.8519 78.9259C23.3749 78.9259 22.2671 77.8218 22.2671 76.3497C22.2671 74.8775 23.3749 73.7734 24.8519 73.7734C26.2059 73.7734 27.4367 75.0002 27.4367 76.3497Z" fill="#FFCF2D"/>
<path d="M49.3459 76.3497C49.3459 77.8218 48.2381 78.926 46.7611 78.926C45.284 78.926 44.1763 77.8218 44.1763 76.3497C44.1763 74.8775 45.284 73.7734 46.7611 73.7734C48.2381 73.7734 49.3459 75.0002 49.3459 76.3497Z" fill="#FFCF2D"/>
<path d="M71.3781 76.3497C71.3781 77.8218 70.2704 78.9259 68.7933 78.9259C67.3163 78.9259 66.2085 77.8218 66.2085 76.3497C66.2085 74.8775 67.3163 73.7734 68.7933 73.7734C70.2704 73.7734 71.3781 75.0002 71.3781 76.3497Z" fill="#FFCF2D"/>
<path d="M93.4109 76.3497C93.4109 77.8218 92.3031 78.926 90.826 78.926C89.349 78.926 88.2412 77.8218 88.2412 76.3497C88.2412 74.8775 89.349 73.7734 90.826 73.7734C92.18 73.7734 93.4109 75.0002 93.4109 76.3497Z" fill="#FFCF2D"/>
<path d="M115.444 76.3497C115.444 77.8218 114.336 78.926 112.859 78.926C111.382 78.926 110.274 77.8218 110.274 76.3497C110.274 74.8775 111.382 73.7734 112.859 73.7734C114.336 73.7734 115.444 75.0002 115.444 76.3497Z" fill="#FFCF2D"/>
<path d="M137.353 76.3497C137.353 77.8218 136.245 78.926 134.768 78.926C133.291 78.926 132.183 77.8218 132.183 76.3497C132.183 74.8775 133.291 73.7734 134.768 73.7734C136.245 73.7734 137.353 75.0002 137.353 76.3497Z" fill="#FFCF2D"/>
<path d="M159.385 76.3497C159.385 77.8218 158.278 78.926 156.801 78.926C155.324 78.926 154.216 77.8218 154.216 76.3497C154.216 74.8775 155.324 73.7734 156.801 73.7734C158.278 73.7734 159.385 75.0002 159.385 76.3497Z" fill="#FFCF2D"/>
<path d="M181.418 76.3497C181.418 77.8218 180.31 78.9259 178.833 78.9259C177.356 78.9259 176.249 77.8218 176.249 76.3497C176.249 74.8775 177.356 73.7734 178.833 73.7734C180.187 73.7734 181.418 75.0002 181.418 76.3497Z" fill="#FFCF2D"/>
<path d="M5.40402 94.629C5.40402 96.1011 4.29624 97.2052 2.8192 97.2052C1.34215 97.2052 0.234375 96.1011 0.234375 94.629C0.234375 93.1568 1.34215 92.0527 2.8192 92.0527C4.29624 92.0527 5.40402 93.1568 5.40402 94.629Z" fill="#FFCF2D"/>
<path d="M27.4367 94.629C27.4367 96.1011 26.329 97.2052 24.8519 97.2052C23.3749 97.2052 22.2671 96.1011 22.2671 94.629C22.2671 93.1568 23.3749 92.0527 24.8519 92.0527C26.2059 92.0527 27.4367 93.1568 27.4367 94.629Z" fill="#FFCF2D"/>
<path d="M49.3459 94.629C49.3459 96.1011 48.2381 97.2052 46.7611 97.2052C45.284 97.2052 44.1763 96.1011 44.1763 94.629C44.1763 93.1568 45.284 92.0527 46.7611 92.0527C48.2381 92.0527 49.3459 93.1568 49.3459 94.629Z" fill="#FFCF2D"/>
<path d="M68.7933 97.2052C70.2209 97.2052 71.3781 96.0518 71.3781 94.629C71.3781 93.2062 70.2209 92.0527 68.7933 92.0527C67.3658 92.0527 66.2085 93.2062 66.2085 94.629C66.2085 96.0518 67.3658 97.2052 68.7933 97.2052Z" fill="#FFCF2D"/>
<path d="M93.4109 94.629C93.4109 96.1011 92.3031 97.2052 90.826 97.2052C89.349 97.2052 88.2412 96.1011 88.2412 94.629C88.2412 93.1568 89.349 92.0527 90.826 92.0527C92.18 92.0527 93.4109 93.1568 93.4109 94.629Z" fill="#FFCF2D"/>
<path d="M115.444 94.629C115.444 96.1011 114.336 97.2052 112.859 97.2052C111.382 97.2052 110.274 96.1011 110.274 94.629C110.274 93.1568 111.382 92.0527 112.859 92.0527C114.336 92.0527 115.444 93.1568 115.444 94.629Z" fill="#FFCF2D"/>
<path d="M137.353 94.629C137.353 96.1011 136.245 97.2052 134.768 97.2052C133.291 97.2052 132.183 96.1011 132.183 94.629C132.183 93.1568 133.291 92.0527 134.768 92.0527C136.245 92.0527 137.353 93.1568 137.353 94.629Z" fill="#FFCF2D"/>
<path d="M156.801 97.2052C158.228 97.2052 159.385 96.0518 159.385 94.629C159.385 93.2062 158.228 92.0527 156.801 92.0527C155.373 92.0527 154.216 93.2062 154.216 94.629C154.216 96.0518 155.373 97.2052 156.801 97.2052Z" fill="#FFCF2D"/>
<path d="M181.418 94.629C181.418 96.1011 180.31 97.2052 178.833 97.2052C177.356 97.2052 176.249 96.1011 176.249 94.629C176.249 93.1568 177.356 92.0527 178.833 92.0527C180.187 92.0527 181.418 93.1568 181.418 94.629Z" fill="#FFCF2D"/>
<path d="M5.40402 112.908C5.40402 114.38 4.29624 115.485 2.8192 115.485C1.34215 115.485 0.234375 114.38 0.234375 112.908C0.234375 111.436 1.34215 110.332 2.8192 110.332C4.29624 110.332 5.40402 111.436 5.40402 112.908Z" fill="#FFCF2D"/>
<path d="M27.4367 112.908C27.4367 114.38 26.3289 115.485 24.8519 115.485C23.3749 115.485 22.2671 114.38 22.2671 112.908C22.2671 111.436 23.3749 110.332 24.8519 110.332C26.2059 110.332 27.4367 111.436 27.4367 112.908Z" fill="#FFCF2D"/>
<path d="M49.3459 112.908C49.3459 114.38 48.2381 115.485 46.7611 115.485C45.284 115.485 44.1763 114.38 44.1763 112.908C44.1763 111.436 45.284 110.332 46.7611 110.332C48.2381 110.332 49.3459 111.436 49.3459 112.908Z" fill="#FFCF2D"/>
<path d="M71.3781 112.908C71.3781 114.38 70.2704 115.485 68.7933 115.485C67.3163 115.485 66.2085 114.38 66.2085 112.908C66.2085 111.436 67.3163 110.332 68.7933 110.332C70.2704 110.332 71.3781 111.436 71.3781 112.908Z" fill="#FFCF2D"/>
<path d="M93.4109 112.908C93.4109 114.38 92.3031 115.485 90.826 115.485C89.349 115.485 88.2412 114.38 88.2412 112.908C88.2412 111.436 89.349 110.332 90.826 110.332C92.18 110.332 93.4109 111.436 93.4109 112.908Z" fill="#FFCF2D"/>
<path d="M115.444 112.908C115.444 114.38 114.336 115.485 112.859 115.485C111.382 115.485 110.274 114.38 110.274 112.908C110.274 111.436 111.382 110.332 112.859 110.332C114.336 110.332 115.444 111.436 115.444 112.908Z" fill="#FFCF2D"/>
<path d="M137.353 112.908C137.353 114.38 136.245 115.485 134.768 115.485C133.291 115.485 132.183 114.38 132.183 112.908C132.183 111.436 133.291 110.332 134.768 110.332C136.245 110.332 137.353 111.436 137.353 112.908Z" fill="#FFCF2D"/>
<path d="M159.385 112.908C159.385 114.38 158.278 115.485 156.801 115.485C155.324 115.485 154.216 114.38 154.216 112.908C154.216 111.436 155.324 110.332 156.801 110.332C158.278 110.332 159.385 111.436 159.385 112.908Z" fill="#FFCF2D"/>
<path d="M181.418 112.908C181.418 114.38 180.31 115.485 178.833 115.485C177.356 115.485 176.249 114.38 176.249 112.908C176.249 111.436 177.356 110.332 178.833 110.332C180.187 110.332 181.418 111.436 181.418 112.908Z" fill="#FFCF2D"/>
<path d="M5.40402 131.065C5.40402 132.537 4.29624 133.641 2.8192 133.641C1.34215 133.641 0.234375 132.537 0.234375 131.065C0.234375 129.592 1.34215 128.488 2.8192 128.488C4.29624 128.488 5.40402 129.715 5.40402 131.065Z" fill="#FFCF2D"/>
<path d="M27.4367 131.065C27.4367 132.537 26.3289 133.641 24.8519 133.641C23.3749 133.641 22.2671 132.537 22.2671 131.065C22.2671 129.592 23.3749 128.488 24.8519 128.488C26.2059 128.488 27.4367 129.715 27.4367 131.065Z" fill="#FFCF2D"/>
<path d="M49.3459 131.065C49.3459 132.537 48.2381 133.641 46.7611 133.641C45.284 133.641 44.1763 132.537 44.1763 131.065C44.1763 129.592 45.284 128.488 46.7611 128.488C48.2381 128.488 49.3459 129.715 49.3459 131.065Z" fill="#FFCF2D"/>
<path d="M71.3781 131.065C71.3781 132.537 70.2704 133.641 68.7933 133.641C67.3163 133.641 66.2085 132.537 66.2085 131.065C66.2085 129.592 67.3163 128.488 68.7933 128.488C70.2704 128.488 71.3781 129.715 71.3781 131.065Z" fill="#FFCF2D"/>
<path d="M93.4108 131.065C93.4108 132.537 92.3031 133.641 90.826 133.641C89.349 133.641 88.2412 132.537 88.2412 131.065C88.2412 129.592 89.349 128.488 90.826 128.488C92.18 128.488 93.4108 129.715 93.4108 131.065Z" fill="#FFCF2D"/>
<path d="M115.444 131.065C115.444 132.537 114.336 133.641 112.859 133.641C111.382 133.641 110.274 132.537 110.274 131.065C110.274 129.592 111.382 128.488 112.859 128.488C114.336 128.488 115.444 129.715 115.444 131.065Z" fill="#FFCF2D"/>
<path d="M137.353 131.065C137.353 132.537 136.245 133.641 134.768 133.641C133.291 133.641 132.183 132.537 132.183 131.065C132.183 129.592 133.291 128.488 134.768 128.488C136.245 128.488 137.353 129.715 137.353 131.065Z" fill="#FFCF2D"/>
<path d="M159.385 131.065C159.385 132.537 158.278 133.641 156.801 133.641C155.324 133.641 154.216 132.537 154.216 131.065C154.216 129.592 155.324 128.488 156.801 128.488C158.278 128.488 159.385 129.715 159.385 131.065Z" fill="#FFCF2D"/>
<path d="M181.418 131.065C181.418 132.537 180.31 133.641 178.833 133.641C177.356 133.641 176.249 132.537 176.249 131.065C176.249 129.592 177.356 128.488 178.833 128.488C180.187 128.488 181.418 129.715 181.418 131.065Z" fill="#FFCF2D"/>
</svg>
